<svg width="108" height="99" viewBox="0 0 108 99" fill="none" xmlns="http://www.w3.org/2000/svg">
<g clip-path="url(#clip0_102_10)">
<path d="M76.023 1.09913C74.1106 1.93291 72.0118 2.47967 70.2238 3.50481C53.4884 13.4206 38.532 25.446 26.5742 40.8294C22.8026 45.7273 19.4996 51.1371 16.8288 56.6805C13.8365 62.5687 12.4528 69.0447 16.909 74.857C21.3651 80.6692 28.0234 80.4263 34.5628 79.5804C42.4677 78.5279 49.7956 75.5376 56.875 72.1645C58.4375 71.4218 60.096 70.6169 62.3474 70.5151C60.1774 74.1009 58.1032 77.6244 55.8036 81.4303C58.7047 82.539 60.0579 80.8441 61.118 79.7476C66.9991 73.4798 72.8181 67.1162 78.4169 60.6236C80.926 57.7699 79.7561 55.1288 76.1784 54.8675C67.8493 54.427 59.8716 56.207 52.1886 59.7C51.9968 59.8246 51.8956 60.2984 51.6025 60.8968C54.4378 64.633 58.3567 60.5916 62.1385 62.2167C51.7316 68.0228 41.6851 72.9146 30.1067 73.7681C28.6791 73.879 27.2232 73.7362 25.801 73.4355C21.8505 72.6001 19.8514 70.3615 20.6951 66.4127C21.6401 61.9901 23.0928 57.5098 25.1723 53.5748C30.1428 44.2254 36.9651 36.258 44.6627 29.2186C53.3529 21.3986 62.5739 14.1861 71.6085 6.68661C73.2101 5.37441 74.9698 4.09563 76.6673 2.72117C76.5147 2.27618 76.2999 1.73549 76.023 1.09913Z" fill="#F2C94C"/>
</g>
<defs>
<clipPath id="clip0_102_10">
<rect width="59.5033" height="89.7958" fill="white" transform="matrix(0.544639 0.838671 0.838671 -0.544639 0 48.9063)"/>
</clipPath>
</defs>
</svg>
