<svg width="155" height="29" viewBox="0 0 155 29" fill="none" xmlns="http://www.w3.org/2000/svg">
<g clip-path="url(#clip0_102_6)">
<path d="M139.791 8.18334C128.86 6.82573 118.678 5.61901 108.496 4.2614C107.747 4.11056 107.148 3.20548 105.501 1.84787C110.292 1.24449 114.036 0.490263 117.779 0.339418C127.662 0.0377274 137.395 0.0377083 147.278 0.0377083C148.476 0.0377083 149.674 -0.113127 150.871 0.188562C154.765 0.942789 156.112 3.50716 154.016 6.9766C152.968 8.63589 151.77 10.1443 150.422 11.502C145.331 16.6307 140.09 21.6086 134.85 26.5865C133.951 27.4915 132.603 27.9441 130.807 29C130.507 21.3069 138.144 19.1951 139.791 13.1613C138.443 13.4629 137.245 13.6138 136.197 13.9155C95.7678 25.078 55.4882 23.8713 15.3583 13.0104C11.1657 11.9545 7.12273 10.2952 3.07979 8.78676C0.983459 8.03253 -0.8134 6.37321 0.384506 3.80884C1.43266 1.24447 3.52901 1.24447 5.92482 2.30039C32.728 14.368 61.1783 15.7256 89.928 15.2731C104.902 15.1222 119.576 13.4629 134.101 9.9935C135.898 9.54096 137.695 8.93756 139.791 8.18334Z" fill="#27AE60"/>
</g>
<defs>
<clipPath id="clip0_102_6">
<rect width="155" height="29" fill="white" transform="translate(155 29) rotate(180)"/>
</clipPath>
</defs>
</svg>
