<svg width="130" height="100" viewBox="0 0 130 100" fill="none" xmlns="http://www.w3.org/2000/svg">
<g clip-path="url(#clip0_102_4)">
<path d="M120.746 91.188C117.367 91.4658 113.989 91.7437 109.978 92.0606C110.638 90.7585 111.047 89.852 111.663 88.9674C123.904 70.104 122.932 48.4804 109.102 30.6748C100.145 19.2892 88.2805 12.6618 74.7141 8.28204C59.5242 3.4151 44.4338 4.57196 29.4883 9.33094C21.7974 11.793 15.5438 16.5161 10.0197 22.2653C8.60188 23.8042 7.28754 25.354 6.218 27.5625C7.31913 27.0453 8.61635 26.6541 9.33625 25.7803C27.7418 5.03299 66.2977 3.70503 92.1876 21.3012C102.352 28.1719 109.539 37.4725 113.221 49.2532C117.522 63.1034 113.309 80.2786 103.058 90.1728C101.688 85.2815 103.98 79.4036 99.0951 75.0922C98.6003 81.792 98.0677 87.8549 97.6497 93.8243C97.5448 95.8177 98.4157 97.4917 100.334 97.1658C106.929 96.171 113.442 94.9566 119.862 93.6269C120.287 93.5661 120.593 92.6488 120.958 92.1597C121.084 91.9619 120.92 91.5228 120.746 91.188Z" fill="#2F80ED"/>
</g>
<defs>
<clipPath id="clip0_102_4">
<rect width="120.892" height="87.2005" transform="matrix(-0.994522 -0.104528 -0.104528 0.994522 129.344 12.6366)" fill="white"/>
</clipPath>
</defs>
</svg>
