<svg id="visual" viewBox="0 0 960 540" width="960" height="540" xmlns="http://www.w3.org/2000/svg" xmlns:xlink="http://www.w3.org/1999/xlink" version="1.1"><rect x="0" y="0" width="960" height="540" fill="#ffffff"></rect><path d="M0 358L20 373C40 388 80 418 120 414.2C160 410.3 200 372.7 240 363.8C280 355 320 375 360 375.7C400 376.3 440 357.7 480 352.5C520 347.3 560 355.7 600 371.7C640 387.7 680 411.3 720 407.7C760 404 800 373 840 361.5C880 350 920 358 940 362L960 366L960 541L940 541C920 541 880 541 840 541C800 541 760 541 720 541C680 541 640 541 600 541C560 541 520 541 480 541C440 541 400 541 360 541C320 541 280 541 240 541C200 541 160 541 120 541C80 541 40 541 20 541L0 541Z" fill="#aed8ff"></path><path d="M0 421L20 421.5C40 422 80 423 120 418.2C160 413.3 200 402.7 240 398.2C280 393.7 320 395.3 360 394.7C400 394 440 391 480 400.5C520 410 560 432 600 437C640 442 680 430 720 420.7C760 411.3 800 404.7 840 414.7C880 424.7 920 451.3 940 464.7L960 478L960 541L940 541C920 541 880 541 840 541C800 541 760 541 720 541C680 541 640 541 600 541C560 541 520 541 480 541C440 541 400 541 360 541C320 541 280 541 240 541C200 541 160 541 120 541C80 541 40 541 20 541L0 541Z" fill="#6daffd"></path><path d="M0 468L20 470C40 472 80 476 120 481.3C160 486.7 200 493.3 240 494.7C280 496 320 492 360 480.7C400 469.3 440 450.7 480 445.8C520 441 560 450 600 451C640 452 680 445 720 448.8C760 452.7 800 467.3 840 469.3C880 471.3 920 460.7 940 455.3L960 450L960 541L940 541C920 541 880 541 840 541C800 541 760 541 720 541C680 541 640 541 600 541C560 541 520 541 480 541C440 541 400 541 360 541C320 541 280 541 240 541C200 541 160 541 120 541C80 541 40 541 20 541L0 541Z" fill="#3b82f6"></path></svg>