<svg id="visual" viewBox="0 0 960 540" width="960" height="540" xmlns="http://www.w3.org/2000/svg" xmlns:xlink="http://www.w3.org/1999/xlink" version="1.1"><rect x="0" y="0" width="960" height="540" fill="#ffffff"></rect><defs><linearGradient id="grad1_0" x1="43.8%" y1="0%" x2="100%" y2="100%"><stop offset="14.444444444444446%" stop-color="#3b82f6" stop-opacity="1"></stop><stop offset="85.55555555555554%" stop-color="#3b82f6" stop-opacity="1"></stop></linearGradient></defs><defs><linearGradient id="grad1_1" x1="43.8%" y1="0%" x2="100%" y2="100%"><stop offset="14.444444444444446%" stop-color="#3b82f6" stop-opacity="1"></stop><stop offset="85.55555555555554%" stop-color="#afbefc" stop-opacity="1"></stop></linearGradient></defs><defs><linearGradient id="grad1_2" x1="43.8%" y1="0%" x2="100%" y2="100%"><stop offset="14.444444444444446%" stop-color="#ffffff" stop-opacity="1"></stop><stop offset="85.55555555555554%" stop-color="#afbefc" stop-opacity="1"></stop></linearGradient></defs><defs><linearGradient id="grad2_0" x1="0%" y1="0%" x2="56.3%" y2="100%"><stop offset="14.444444444444446%" stop-color="#3b82f6" stop-opacity="1"></stop><stop offset="85.55555555555554%" stop-color="#3b82f6" stop-opacity="1"></stop></linearGradient></defs><defs><linearGradient id="grad2_1" x1="0%" y1="0%" x2="56.3%" y2="100%"><stop offset="14.444444444444446%" stop-color="#afbefc" stop-opacity="1"></stop><stop offset="85.55555555555554%" stop-color="#3b82f6" stop-opacity="1"></stop></linearGradient></defs><defs><linearGradient id="grad2_2" x1="0%" y1="0%" x2="56.3%" y2="100%"><stop offset="14.444444444444446%" stop-color="#afbefc" stop-opacity="1"></stop><stop offset="85.55555555555554%" stop-color="#ffffff" stop-opacity="1"></stop></linearGradient></defs><g transform="translate(960, 0)"><path d="M0 324C-47.7 300.5 -95.3 276.9 -146 252.9C-196.7 228.8 -250.4 204.2 -280.6 162C-310.8 119.8 -317.4 59.9 -324 0L0 0Z" fill="#d8defe"></path><path d="M0 216C-31.8 200.3 -63.5 184.6 -97.3 168.6C-131.1 152.5 -166.9 136.2 -187.1 108C-207.2 79.8 -211.6 39.9 -216 0L0 0Z" fill="#809ff9"></path><path d="M0 108C-15.9 100.2 -31.8 92.3 -48.7 84.3C-65.6 76.3 -83.5 68.1 -93.5 54C-103.6 39.9 -105.8 20 -108 0L0 0Z" fill="#3b82f6"></path></g><g transform="translate(0, 540)"><path d="M0 -324C62.4 -318.8 124.8 -313.7 162 -280.6C199.2 -247.5 211 -186.4 233.8 -135C256.6 -83.6 290.3 -41.8 324 0L0 0Z" fill="#d8defe"></path><path d="M0 -216C41.6 -212.6 83.2 -209.1 108 -187.1C132.8 -165 140.7 -124.3 155.9 -90C171.1 -55.7 193.5 -27.9 216 0L0 0Z" fill="#809ff9"></path><path d="M0 -108C20.8 -106.3 41.6 -104.6 54 -93.5C66.4 -82.5 70.3 -62.1 77.9 -45C85.5 -27.9 96.8 -13.9 108 0L0 0Z" fill="#3b82f6"></path></g></svg>